G04 Layer: TopLayer*
G04 EasyEDA Pro v2.2.40.8, 2025-09-13 20:07:49*
G04 Gerber Generator version 0.3*
G04 Scale: 100 percent, Rotated: No, Reflected: No*
G04 Dimensions in millimeters*
G04 Leading zeros omitted, absolute positions, 4 integers and 5 decimals*
G04 Generated by one-click*
%FSLAX45Y45*%
%MOMM*%
%AMPolygonMacro1*4,1,6,2.6035,-0.78047,-2.57334,-0.78047,-2.6035,-0.75031,-2.6035,0.78047,2.59673,0.78047,2.6035,0.77369,2.6035,-0.78047,0*%
%ADD10C,1.5875*%
%ADD11PolygonMacro1*%
%ADD12C,0.0813*%
G75*


G04 PolygonModel Start*
G54D10*
G01X20241781Y3975100D02*
G01X147626Y3975100D01*
G01X20241781Y1435100D02*
G01X151547Y1435100D01*
G01X20239799Y3721100D02*
G01X148066Y3721100D01*
G01X20242773Y3467100D02*
G01X149828Y3467100D01*
G01X20244755Y2959100D02*
G01X149828Y2959100D01*
G01X20242773Y2705100D02*
G01X151150Y2705100D01*
G01X20240790Y2451100D02*
G01X150709Y2451100D01*
G01X20242773Y2197100D02*
G01X151150Y2197100D01*
G01X20241781Y1943100D02*
G01X148947Y1943100D01*
G01X20244755Y1689100D02*
G01X151150Y1689100D01*
G01X20242773Y3213100D02*
G01X149388Y3213100D01*

G04 Pad Start*
G54D11*
G01X20066000Y3721099D03*
G01X20066000Y3975099D03*
G01X20066000Y3467099D03*
G01X20066000Y3213099D03*
G01X20066000Y2959099D03*
G01X20066000Y2705099D03*
G01X20066000Y2451099D03*
G01X20066000Y2197099D03*
G01X20066000Y1943099D03*
G01X20066000Y1689099D03*
G01X20066000Y1435099D03*
G01X328987Y3975100D03*
G01X328987Y3721100D03*
G01X328987Y3467100D03*
G01X330200Y3213099D03*
G01X330200Y2959099D03*
G01X330200Y2705099D03*
G01X328987Y2451100D03*
G01X331217Y2197100D03*
G01X328987Y1943100D03*
G01X328987Y1689100D03*
G01X333446Y1435100D03*
G04 Pad End*

M02*

